PathFileType	4	(X/Y/Z)	output.trc
DataRate	CameraRate	NumFrames	NumMarkers	Units	OrigDataRate	OrigDataStartFrame	OrigNumFrames
100	100	9	23	m	100	3746	4280
Frame#	Time	C7			T8			EL			EM			US			RS			AA			Fore_Clus_1			Fore_Clus_2			Fore_Clus_3			Fore_Clus_4			Hum_Clus_1			Hum_Clus_2			Hum_Clus_3			Hum_Clus_4			Thor_Clus_1			Thor_Clus_2			Thor_Clus_3			Thor_Clus_4			IJ			PX			GH			Thor_Clus_5		
		X1	Y1	Z1	X2	Y2	Z2	X3	Y3	Z3	X4	Y4	Z4	X5	Y5	Z5	X6	Y6	Z6	X7	Y7	Z7	X8	Y8	Z8	X9	Y9	Z9	X10	Y10	Z10	X11	Y11	Z11	X12	Y12	Z12	X13	Y13	Z13	X14	Y14	Z14	X15	Y15	Z15	X16	Y16	Z16	X17	Y17	Z17	X18	Y18	Z18	X19	Y19	Z19	X20	Y20	Z20	X21	Y21	Z21	X22	Y22	Z22	X23	Y23	Z23
3745	37.450000	-0.018942	1.638600	-0.024509	-0.070990	1.429201	-0.146689	-0.398435	1.380837	-0.036602	-0.366337	1.392853	-0.100088	-0.589822	1.200808	-0.132121	-0.555018	1.160034	-0.115299	-0.207068	1.553775	0.089865	-0.569518	1.224171	-0.075171	-0.603656	1.184849	-0.091670	-0.583664	1.165531	-0.086517	-0.537501	1.193268	-0.065814	-0.317144	1.401690	0.058403	-0.341754	1.455957	0.051426	-0.301256	1.491138	0.085758	-0.265405	1.444189	0.090397	0.083370	1.478189	0.082377	0.034311	1.419686	0.119071	0.043673	1.474193	0.101833	0.092030	1.425016	0.090616	0.018236	1.509776	0.048505	0.014592	1.315746	0.034797	-0.148118	1.555018	0.093122	0.030519	1.443485	0.115221
3746	37.460000	-0.018628	1.638627	-0.024568	-0.071070	1.429325	-0.146746	-0.398832	1.381918	-0.036574	-0.366753	1.393859	-0.100083	-0.591382	1.203146	-0.131861	-0.556726	1.162137	-0.115306	-0.206873	1.554123	0.089848	-0.570666	1.226116	-0.074839	-0.605059	1.187058	-0.091405	-0.585148	1.167631	-0.086294	-0.538706	1.195090	-0.065752	-0.317407	1.402509	0.058379	-0.341843	1.456852	0.051399	-0.301249	1.491956	0.085719	-0.265551	1.444864	0.090366	0.083403	1.478004	0.082405	0.034286	1.419674	0.118992	0.043720	1.474141	0.101747	0.092001	1.424907	0.090540	0.018344	1.509734	0.048430	0.014358	1.315711	0.034712	-0.147903	1.555338	0.092988	0.030537	1.443427	0.115106
3747	37.470000	-0.018321	1.638649	-0.024629	-0.071135	1.429441	-0.146807	-0.399209	1.382933	-0.036528	-0.367151	1.394798	-0.100063	-0.592834	1.205336	-0.131576	-0.558327	1.164109	-0.115254	-0.206682	1.554450	0.089822	-0.571817	1.228004	-0.074464	-0.606407	1.189182	-0.091059	-0.586595	1.169605	-0.086113	-0.539963	1.196724	-0.065609	-0.317789	1.403385	0.058401	-0.342006	1.457815	0.051372	-0.301250	1.492760	0.085635	-0.265709	1.445475	0.090329	0.083421	1.477858	0.082378	0.034183	1.419676	0.118868	0.043740	1.474090	0.101650	0.091943	1.424795	0.090463	0.018453	1.509691	0.048354	0.014143	1.315676	0.034627	-0.147697	1.555642	0.092854	0.030483	1.443389	0.115034
3748	37.480000	-0.018014	1.638680	-0.024674	-0.071185	1.429575	-0.146873	-0.399566	1.383886	-0.036469	-0.367529	1.395672	-0.100028	-0.594187	1.207381	-0.131267	-0.559827	1.165952	-0.115147	-0.206492	1.554769	0.089796	-0.572939	1.229929	-0.074170	-0.607791	1.191273	-0.090714	-0.587976	1.171637	-0.085841	-0.541188	1.198500	-0.065388	-0.318074	1.404185	0.058265	-0.342098	1.458654	0.051256	-0.301271	1.493492	0.085579	-0.265873	1.446184	0.090267	0.083421	1.477731	0.082272	0.034121	1.419644	0.118773	0.043780	1.474079	0.101552	0.091890	1.424678	0.090339	0.018564	1.509653	0.048285	0.013939	1.315647	0.034531	-0.147500	1.555929	0.092722	0.030480	1.443371	0.114949
3749	37.490000	-0.017728	1.638699	-0.024728	-0.071232	1.429686	-0.146940	-0.399902	1.384782	-0.036401	-0.367882	1.396486	-0.099985	-0.595431	1.209287	-0.130947	-0.561221	1.167672	-0.114989	-0.206313	1.555059	0.089763	-0.574029	1.231839	-0.074040	-0.609021	1.193372	-0.090612	-0.589437	1.173576	-0.085557	-0.542446	1.200204	-0.065153	-0.318441	1.404955	0.058346	-0.342310	1.459553	0.051257	-0.301306	1.494223	0.085540	-0.266076	1.446869	0.090284	0.083452	1.477640	0.082165	0.034086	1.419600	0.118664	0.043809	1.474030	0.101453	0.091849	1.424580	0.090249	0.018668	1.509609	0.048211	0.013750	1.315612	0.034438	-0.147314	1.556201	0.092599	0.030448	1.443328	0.114855
3750	37.500000	-0.017448	1.638728	-0.024765	-0.071275	1.429818	-0.147010	-0.400219	1.385622	-0.036328	-0.368212	1.397239	-0.099933	-0.596582	1.211057	-0.130614	-0.562519	1.169271	-0.114787	-0.206138	1.555341	0.089738	-0.575011	1.233585	-0.073890	-0.610239	1.195241	-0.090337	-0.590684	1.175387	-0.085353	-0.543621	1.201852	-0.064977	-0.318645	1.405677	0.058370	-0.342405	1.460357	0.051272	-0.301307	1.494944	0.085512	-0.266153	1.447423	0.090266	0.083508	1.477530	0.082050	0.034079	1.419565	0.118572	0.043878	1.473992	0.101357	0.091836	1.424462	0.090132	0.018770	1.509571	0.048144	0.013567	1.315584	0.034333	-0.147141	1.556458	0.092486	0.030488	1.443290	0.114752
3751	37.510000	-0.017186	1.638755	-0.024798	-0.071322	1.429946	-0.147079	-0.400516	1.386411	-0.036252	-0.368514	1.397938	-0.099876	-0.597635	1.212694	-0.130277	-0.563717	1.170754	-0.114546	-0.205973	1.555605	0.089717	-0.575958	1.235086	-0.073616	-0.611299	1.196959	-0.090150	-0.591862	1.176966	-0.085204	-0.544652	1.203215	-0.064727	-0.318859	1.406293	0.058428	-0.342449	1.460933	0.051256	-0.301321	1.495490	0.085539	-0.266299	1.447883	0.090297	0.083567	1.477406	0.081957	0.034068	1.419500	0.118475	0.043934	1.473915	0.101252	0.091821	1.424319	0.090023	0.018865	1.509533	0.048077	0.013391	1.315556	0.034226	-0.146982	1.556701	0.092387	0.030502	1.443223	0.114651
3752	37.520000	-0.016946	1.638781	-0.024829	-0.071377	1.430070	-0.147148	-0.400793	1.387152	-0.036176	-0.368789	1.398584	-0.099817	-0.598595	1.214205	-0.129940	-0.564818	1.172127	-0.114275	-0.205821	1.555852	0.089702	-0.576768	1.236372	-0.073165	-0.612263	1.198361	-0.089671	-0.592903	1.178289	-0.084710	-0.545553	1.204406	-0.064316	-0.319000	1.406931	0.058403	-0.342658	1.461659	0.051340	-0.301347	1.496052	0.085553	-0.266422	1.448378	0.090304	0.083612	1.477260	0.081872	0.034066	1.419426	0.118359	0.044004	1.473838	0.101136	0.091803	1.424162	0.089904	0.018949	1.509495	0.048011	0.013220	1.315529	0.034117	-0.146837	1.556933	0.092304	0.030504	1.443162	0.114535
3753	37.530000	-0.016718	1.638820	-0.024840	-0.071439	1.430219	-0.147215	-0.401052	1.387846	-0.036100	-0.369040	1.399180	-0.099754	-0.599474	1.215591	-0.129604	-0.565831	1.173391	-0.113980	-0.205676	1.556094	0.089702	-0.577349	1.237612	-0.072737	-0.613074	1.199665	-0.089157	-0.593658	1.179667	-0.084380	-0.546223	1.205446	-0.064052	-0.319279	1.407507	0.058523	-0.342708	1.462307	0.051347	-0.301336	1.496615	0.085559	-0.266512	1.448927	0.090326	0.083639	1.477107	0.081772	0.034043	1.419309	0.118258	0.044033	1.473727	0.101051	0.091758	1.423981	0.089819	0.019027	1.509466	0.047951	0.013048	1.315511	0.033996	-0.146708	1.557153	0.092236	0.030506	1.443053	0.114427
